<?xml version="1.0" encoding="UTF-8" standalone="no"?>
<!DOCTYPE svg PUBLIC "-//W3C//DTD SVG 1.1//EN"
 "http://www.w3.org/Graphics/SVG/1.1/DTD/svg11.dtd">
<!-- Generated by graphviz version 2.42.3 (20191010.1750)
 -->
<!-- Title: snakemake_dag Pages: 1 -->
<svg width="274pt" height="404pt"
 viewBox="0.00 0.00 274.00 404.00" xmlns="http://www.w3.org/2000/svg" xmlns:xlink="http://www.w3.org/1999/xlink">
<g id="graph0" class="graph" transform="scale(1 1) rotate(0) translate(4 400)">
<title>snakemake_dag</title>
<polygon fill="white" stroke="transparent" points="-4,4 -4,-400 270,-400 270,4 -4,4"/>
<!-- 0 -->
<g id="node1" class="node">
<title>0</title>
<path fill="none" stroke="#d8ac56" stroke-width="2" stroke-dasharray="5,2" d="M121,-36C121,-36 91,-36 91,-36 85,-36 79,-30 79,-24 79,-24 79,-12 79,-12 79,-6 85,0 91,0 91,0 121,0 121,0 127,0 133,-6 133,-12 133,-12 133,-24 133,-24 133,-30 127,-36 121,-36"/>
<text text-anchor="middle" x="106" y="-15.5" font-family="sans" font-size="10.00">all</text>
</g>
<!-- 1 -->
<g id="node2" class="node">
<title>1</title>
<path fill="none" stroke="#56a9d8" stroke-width="2" stroke-dasharray="5,2" d="M127.5,-108C127.5,-108 84.5,-108 84.5,-108 78.5,-108 72.5,-102 72.5,-96 72.5,-96 72.5,-84 72.5,-84 72.5,-78 78.5,-72 84.5,-72 84.5,-72 127.5,-72 127.5,-72 133.5,-72 139.5,-78 139.5,-84 139.5,-84 139.5,-96 139.5,-96 139.5,-102 133.5,-108 127.5,-108"/>
<text text-anchor="middle" x="106" y="-87.5" font-family="sans" font-size="10.00">plot_quals</text>
</g>
<!-- 1&#45;&gt;0 -->
<g id="edge1" class="edge">
<title>1&#45;&gt;0</title>
<path fill="none" stroke="grey" stroke-width="2" d="M106,-71.7C106,-63.98 106,-54.71 106,-46.11"/>
<polygon fill="grey" stroke="grey" stroke-width="2" points="109.5,-46.1 106,-36.1 102.5,-46.1 109.5,-46.1"/>
</g>
<!-- 2 -->
<g id="node3" class="node">
<title>2</title>
<path fill="none" stroke="#afd856" stroke-width="2" stroke-dasharray="5,2" d="M133,-180C133,-180 79,-180 79,-180 73,-180 67,-174 67,-168 67,-168 67,-156 67,-156 67,-150 73,-144 79,-144 79,-144 133,-144 133,-144 139,-144 145,-150 145,-156 145,-156 145,-168 145,-168 145,-174 139,-180 133,-180"/>
<text text-anchor="middle" x="106" y="-159.5" font-family="sans" font-size="10.00">bcftools_call</text>
</g>
<!-- 2&#45;&gt;1 -->
<g id="edge2" class="edge">
<title>2&#45;&gt;1</title>
<path fill="none" stroke="grey" stroke-width="2" d="M106,-143.7C106,-135.98 106,-126.71 106,-118.11"/>
<polygon fill="grey" stroke="grey" stroke-width="2" points="109.5,-118.1 106,-108.1 102.5,-118.1 109.5,-118.1"/>
</g>
<!-- 3 -->
<g id="node4" class="node">
<title>3</title>
<path fill="none" stroke="#d85656" stroke-width="2" stroke-dasharray="5,2" d="M74,-324C74,-324 12,-324 12,-324 6,-324 0,-318 0,-312 0,-312 0,-300 0,-300 0,-294 6,-288 12,-288 12,-288 74,-288 74,-288 80,-288 86,-294 86,-300 86,-300 86,-312 86,-312 86,-318 80,-324 74,-324"/>
<text text-anchor="middle" x="43" y="-303.5" font-family="sans" font-size="10.00">samtools_sort</text>
</g>
<!-- 3&#45;&gt;2 -->
<g id="edge3" class="edge">
<title>3&#45;&gt;2</title>
<path fill="none" stroke="grey" stroke-width="2" d="M28.96,-287.74C15.66,-269.14 -0.44,-239.12 13,-216 22.77,-199.19 40.09,-187.27 57.15,-179.04"/>
<polygon fill="grey" stroke="grey" stroke-width="2" points="58.85,-182.12 66.56,-174.85 56,-175.73 58.85,-182.12"/>
</g>
<!-- 7 -->
<g id="node8" class="node">
<title>7</title>
<path fill="none" stroke="#56d8a9" stroke-width="2" stroke-dasharray="5,2" d="M104,-252C104,-252 34,-252 34,-252 28,-252 22,-246 22,-240 22,-240 22,-228 22,-228 22,-222 28,-216 34,-216 34,-216 104,-216 104,-216 110,-216 116,-222 116,-228 116,-228 116,-240 116,-240 116,-246 110,-252 104,-252"/>
<text text-anchor="middle" x="69" y="-231.5" font-family="sans" font-size="10.00">samtools_index</text>
</g>
<!-- 3&#45;&gt;7 -->
<g id="edge9" class="edge">
<title>3&#45;&gt;7</title>
<path fill="none" stroke="grey" stroke-width="2" d="M49.43,-287.7C52.36,-279.81 55.89,-270.3 59.14,-261.55"/>
<polygon fill="grey" stroke="grey" stroke-width="2" points="62.45,-262.7 62.65,-252.1 55.88,-260.26 62.45,-262.7"/>
</g>
<!-- 4 -->
<g id="node5" class="node">
<title>4</title>
<path fill="none" stroke="#59d856" stroke-width="2" stroke-dasharray="5,2" d="M63.5,-396C63.5,-396 22.5,-396 22.5,-396 16.5,-396 10.5,-390 10.5,-384 10.5,-384 10.5,-372 10.5,-372 10.5,-366 16.5,-360 22.5,-360 22.5,-360 63.5,-360 63.5,-360 69.5,-360 75.5,-366 75.5,-372 75.5,-372 75.5,-384 75.5,-384 75.5,-390 69.5,-396 63.5,-396"/>
<text text-anchor="middle" x="43" y="-381" font-family="sans" font-size="10.00">bwa_map</text>
<text text-anchor="middle" x="43" y="-370" font-family="sans" font-size="10.00">sample: A</text>
</g>
<!-- 4&#45;&gt;3 -->
<g id="edge7" class="edge">
<title>4&#45;&gt;3</title>
<path fill="none" stroke="grey" stroke-width="2" d="M43,-359.7C43,-351.98 43,-342.71 43,-334.11"/>
<polygon fill="grey" stroke="grey" stroke-width="2" points="46.5,-334.1 43,-324.1 39.5,-334.1 46.5,-334.1"/>
</g>
<!-- 5 -->
<g id="node6" class="node">
<title>5</title>
<path fill="none" stroke="#d85656" stroke-width="2" stroke-dasharray="5,2" d="M201,-324C201,-324 139,-324 139,-324 133,-324 127,-318 127,-312 127,-312 127,-300 127,-300 127,-294 133,-288 139,-288 139,-288 201,-288 201,-288 207,-288 213,-294 213,-300 213,-300 213,-312 213,-312 213,-318 207,-324 201,-324"/>
<text text-anchor="middle" x="170" y="-303.5" font-family="sans" font-size="10.00">samtools_sort</text>
</g>
<!-- 5&#45;&gt;2 -->
<g id="edge4" class="edge">
<title>5&#45;&gt;2</title>
<path fill="none" stroke="grey" stroke-width="2" d="M162.28,-287.87C151.28,-263.46 130.98,-218.43 118,-189.64"/>
<polygon fill="grey" stroke="grey" stroke-width="2" points="121.05,-187.87 113.75,-180.19 114.67,-190.74 121.05,-187.87"/>
</g>
<!-- 8 -->
<g id="node9" class="node">
<title>8</title>
<path fill="none" stroke="#56d8a9" stroke-width="2" stroke-dasharray="5,2" d="M254,-252C254,-252 184,-252 184,-252 178,-252 172,-246 172,-240 172,-240 172,-228 172,-228 172,-222 178,-216 184,-216 184,-216 254,-216 254,-216 260,-216 266,-222 266,-228 266,-228 266,-240 266,-240 266,-246 260,-252 254,-252"/>
<text text-anchor="middle" x="219" y="-231.5" font-family="sans" font-size="10.00">samtools_index</text>
</g>
<!-- 5&#45;&gt;8 -->
<g id="edge10" class="edge">
<title>5&#45;&gt;8</title>
<path fill="none" stroke="grey" stroke-width="2" d="M182.11,-287.7C187.87,-279.47 194.86,-269.48 201.21,-260.42"/>
<polygon fill="grey" stroke="grey" stroke-width="2" points="204.16,-262.3 207.03,-252.1 198.42,-258.29 204.16,-262.3"/>
</g>
<!-- 6 -->
<g id="node7" class="node">
<title>6</title>
<path fill="none" stroke="#59d856" stroke-width="2" stroke-dasharray="5,2" d="M190.5,-396C190.5,-396 149.5,-396 149.5,-396 143.5,-396 137.5,-390 137.5,-384 137.5,-384 137.5,-372 137.5,-372 137.5,-366 143.5,-360 149.5,-360 149.5,-360 190.5,-360 190.5,-360 196.5,-360 202.5,-366 202.5,-372 202.5,-372 202.5,-384 202.5,-384 202.5,-390 196.5,-396 190.5,-396"/>
<text text-anchor="middle" x="170" y="-381" font-family="sans" font-size="10.00">bwa_map</text>
<text text-anchor="middle" x="170" y="-370" font-family="sans" font-size="10.00">sample: B</text>
</g>
<!-- 6&#45;&gt;5 -->
<g id="edge8" class="edge">
<title>6&#45;&gt;5</title>
<path fill="none" stroke="grey" stroke-width="2" d="M170,-359.7C170,-351.98 170,-342.71 170,-334.11"/>
<polygon fill="grey" stroke="grey" stroke-width="2" points="173.5,-334.1 170,-324.1 166.5,-334.1 173.5,-334.1"/>
</g>
<!-- 7&#45;&gt;2 -->
<g id="edge5" class="edge">
<title>7&#45;&gt;2</title>
<path fill="none" stroke="grey" stroke-width="2" d="M78.15,-215.7C82.4,-207.64 87.56,-197.89 92.27,-188.98"/>
<polygon fill="grey" stroke="grey" stroke-width="2" points="95.38,-190.58 96.96,-180.1 89.19,-187.31 95.38,-190.58"/>
</g>
<!-- 8&#45;&gt;2 -->
<g id="edge6" class="edge">
<title>8&#45;&gt;2</title>
<path fill="none" stroke="grey" stroke-width="2" d="M191.36,-215.88C176.58,-206.72 158.21,-195.34 142.3,-185.48"/>
<polygon fill="grey" stroke="grey" stroke-width="2" points="144.09,-182.48 133.75,-180.19 140.41,-188.43 144.09,-182.48"/>
</g>
</g>
</svg>
